<svg id="visual" viewBox="0 0 900 600" width="900" height="600" xmlns="http://www.w3.org/2000/svg" xmlns:xlink="http://www.w3.org/1999/xlink" version="1.1"><g stroke-width="1" stroke-linejoin="bevel"><path d="M434 271L481 191L387 219Z" fill="#000000" stroke="#000000"></path><path d="M434 271L500 329L481 191Z" fill="#2e2e2e" stroke="#2e2e2e"></path><path d="M481 191L375 110L387 219Z" fill="#2e2e2e" stroke="#2e2e2e"></path><path d="M319 130L307 197L387 219Z" fill="#101010" stroke="#101010"></path><path d="M387 219L289 281L434 271Z" fill="#090909" stroke="#090909"></path><path d="M434 271L415 420L500 329Z" fill="#393939" stroke="#393939"></path><path d="M375 110L319 130L387 219Z" fill="#393939" stroke="#393939"></path><path d="M602 168L529 94L481 191Z" fill="#090909" stroke="#090909"></path><path d="M481 191L529 94L375 110Z" fill="#343434" stroke="#343434"></path><path d="M196 218L289 281L307 197Z" fill="#161616" stroke="#161616"></path><path d="M307 197L289 281L387 219Z" fill="#1f1f1f" stroke="#1f1f1f"></path><path d="M612 311L602 168L481 191Z" fill="#292929" stroke="#292929"></path><path d="M415 420L527 379L500 329Z" fill="#101010" stroke="#101010"></path><path d="M500 329L612 311L481 191Z" fill="#1f1f1f" stroke="#1f1f1f"></path><path d="M576 375L612 311L500 329Z" fill="#1f1f1f" stroke="#1f1f1f"></path><path d="M289 281L415 420L434 271Z" fill="#090909" stroke="#090909"></path><path d="M567 501L576 375L527 379Z" fill="#292929" stroke="#292929"></path><path d="M527 379L576 375L500 329Z" fill="#000000" stroke="#000000"></path><path d="M511 0L438 0L529 94Z" fill="#393939" stroke="#393939"></path><path d="M529 94L438 0L375 110Z" fill="#1f1f1f" stroke="#1f1f1f"></path><path d="M375 110L304 0L319 130Z" fill="#1a1a1a" stroke="#1a1a1a"></path><path d="M289 281L272 375L415 420Z" fill="#292929" stroke="#292929"></path><path d="M592 0L511 0L529 94Z" fill="#161616" stroke="#161616"></path><path d="M730 168L639 100L602 168Z" fill="#343434" stroke="#343434"></path><path d="M602 168L639 100L529 94Z" fill="#242424" stroke="#242424"></path><path d="M178 125L307 197L319 130Z" fill="#343434" stroke="#343434"></path><path d="M178 125L196 218L307 197Z" fill="#292929" stroke="#292929"></path><path d="M289 281L160 334L272 375Z" fill="#393939" stroke="#393939"></path><path d="M310 467L399 460L415 420Z" fill="#000000" stroke="#000000"></path><path d="M415 420L470 462L527 379Z" fill="#161616" stroke="#161616"></path><path d="M399 460L470 462L415 420Z" fill="#1a1a1a" stroke="#1a1a1a"></path><path d="M438 0L304 0L375 110Z" fill="#000000" stroke="#000000"></path><path d="M724 438L693 269L612 311Z" fill="#1f1f1f" stroke="#1f1f1f"></path><path d="M612 311L693 269L602 168Z" fill="#090909" stroke="#090909"></path><path d="M639 100L592 0L529 94Z" fill="#1f1f1f" stroke="#1f1f1f"></path><path d="M730 168L673 81L639 100Z" fill="#393939" stroke="#393939"></path><path d="M639 100L673 81L592 0Z" fill="#161616" stroke="#161616"></path><path d="M207 0L178 125L319 130Z" fill="#000000" stroke="#000000"></path><path d="M272 375L310 467L415 420Z" fill="#292929" stroke="#292929"></path><path d="M533 600L567 501L470 462Z" fill="#2e2e2e" stroke="#2e2e2e"></path><path d="M230 509L310 467L272 375Z" fill="#343434" stroke="#343434"></path><path d="M693 269L730 168L602 168Z" fill="#000000" stroke="#000000"></path><path d="M94 239L160 334L196 218Z" fill="#242424" stroke="#242424"></path><path d="M196 218L160 334L289 281Z" fill="#2e2e2e" stroke="#2e2e2e"></path><path d="M433 600L470 462L399 460Z" fill="#090909" stroke="#090909"></path><path d="M470 462L567 501L527 379Z" fill="#1a1a1a" stroke="#1a1a1a"></path><path d="M576 375L724 438L612 311Z" fill="#2e2e2e" stroke="#2e2e2e"></path><path d="M160 334L181 393L272 375Z" fill="#393939" stroke="#393939"></path><path d="M304 0L207 0L319 130Z" fill="#101010" stroke="#101010"></path><path d="M178 125L94 239L196 218Z" fill="#393939" stroke="#393939"></path><path d="M160 334L137 430L181 393Z" fill="#2e2e2e" stroke="#2e2e2e"></path><path d="M108 82L94 239L178 125Z" fill="#2e2e2e" stroke="#2e2e2e"></path><path d="M789 98L717 0L673 81Z" fill="#000000" stroke="#000000"></path><path d="M673 81L717 0L592 0Z" fill="#1a1a1a" stroke="#1a1a1a"></path><path d="M181 393L230 509L272 375Z" fill="#1f1f1f" stroke="#1f1f1f"></path><path d="M310 467L433 600L399 460Z" fill="#000000" stroke="#000000"></path><path d="M137 430L230 509L181 393Z" fill="#101010" stroke="#101010"></path><path d="M207 0L108 82L178 125Z" fill="#242424" stroke="#242424"></path><path d="M94 239L95 321L160 334Z" fill="#1f1f1f" stroke="#1f1f1f"></path><path d="M567 501L724 438L576 375Z" fill="#1f1f1f" stroke="#1f1f1f"></path><path d="M693 269L806 221L730 168Z" fill="#090909" stroke="#090909"></path><path d="M95 321L137 430L160 334Z" fill="#161616" stroke="#161616"></path><path d="M818 298L806 221L693 269Z" fill="#343434" stroke="#343434"></path><path d="M730 168L789 98L673 81Z" fill="#090909" stroke="#090909"></path><path d="M806 221L789 98L730 168Z" fill="#2e2e2e" stroke="#2e2e2e"></path><path d="M287 600L433 600L310 467Z" fill="#1f1f1f" stroke="#1f1f1f"></path><path d="M567 501L728 537L724 438Z" fill="#1a1a1a" stroke="#1a1a1a"></path><path d="M724 438L793 376L693 269Z" fill="#1f1f1f" stroke="#1f1f1f"></path><path d="M793 376L818 298L693 269Z" fill="#090909" stroke="#090909"></path><path d="M900 0L788 0L789 98Z" fill="#161616" stroke="#161616"></path><path d="M433 600L533 600L470 462Z" fill="#1f1f1f" stroke="#1f1f1f"></path><path d="M208 600L287 600L230 509Z" fill="#101010" stroke="#101010"></path><path d="M230 509L287 600L310 467Z" fill="#292929" stroke="#292929"></path><path d="M900 129L789 98L806 221Z" fill="#1f1f1f" stroke="#1f1f1f"></path><path d="M789 98L788 0L717 0Z" fill="#2e2e2e" stroke="#2e2e2e"></path><path d="M207 0L88 0L108 82Z" fill="#292929" stroke="#292929"></path><path d="M0 177L0 262L94 239Z" fill="#1f1f1f" stroke="#1f1f1f"></path><path d="M94 239L0 262L95 321Z" fill="#1a1a1a" stroke="#1a1a1a"></path><path d="M533 600L624 600L567 501Z" fill="#2e2e2e" stroke="#2e2e2e"></path><path d="M724 438L827 523L793 376Z" fill="#101010" stroke="#101010"></path><path d="M0 369L104 486L137 430Z" fill="#101010" stroke="#101010"></path><path d="M137 430L104 486L230 509Z" fill="#242424" stroke="#242424"></path><path d="M667 600L728 537L567 501Z" fill="#000000" stroke="#000000"></path><path d="M0 177L94 239L108 82Z" fill="#343434" stroke="#343434"></path><path d="M95 321L0 369L137 430Z" fill="#161616" stroke="#161616"></path><path d="M0 106L0 177L108 82Z" fill="#000000" stroke="#000000"></path><path d="M624 600L667 600L567 501Z" fill="#101010" stroke="#101010"></path><path d="M104 486L208 600L230 509Z" fill="#393939" stroke="#393939"></path><path d="M88 0L0 106L108 82Z" fill="#242424" stroke="#242424"></path><path d="M900 291L806 221L818 298Z" fill="#000000" stroke="#000000"></path><path d="M900 291L900 212L806 221Z" fill="#1a1a1a" stroke="#1a1a1a"></path><path d="M900 291L818 298L900 369Z" fill="#161616" stroke="#161616"></path><path d="M0 262L0 369L95 321Z" fill="#242424" stroke="#242424"></path><path d="M900 369L818 298L793 376Z" fill="#393939" stroke="#393939"></path><path d="M900 212L900 129L806 221Z" fill="#2e2e2e" stroke="#2e2e2e"></path><path d="M827 523L724 438L728 537Z" fill="#242424" stroke="#242424"></path><path d="M900 475L900 369L793 376Z" fill="#000000" stroke="#000000"></path><path d="M88 0L0 0L0 106Z" fill="#101010" stroke="#101010"></path><path d="M803 600L827 523L728 537Z" fill="#1f1f1f" stroke="#1f1f1f"></path><path d="M104 486L104 600L208 600Z" fill="#161616" stroke="#161616"></path><path d="M0 600L104 600L104 486Z" fill="#1f1f1f" stroke="#1f1f1f"></path><path d="M0 369L0 480L104 486Z" fill="#393939" stroke="#393939"></path><path d="M900 129L900 0L789 98Z" fill="#090909" stroke="#090909"></path><path d="M667 600L803 600L728 537Z" fill="#2e2e2e" stroke="#2e2e2e"></path><path d="M827 523L900 475L793 376Z" fill="#000000" stroke="#000000"></path><path d="M900 600L900 475L827 523Z" fill="#1a1a1a" stroke="#1a1a1a"></path><path d="M0 480L0 600L104 486Z" fill="#393939" stroke="#393939"></path><path d="M803 600L900 600L827 523Z" fill="#1f1f1f" stroke="#1f1f1f"></path></g></svg>