<svg id="visual" viewBox="0 0 900 600" width="900" height="600" xmlns="http://www.w3.org/2000/svg" xmlns:xlink="http://www.w3.org/1999/xlink" version="1.1"><g stroke-width="1" stroke-linejoin="bevel"><path d="M511 287L529 365L564 319Z" fill="#2f3943" stroke="#2f3943"></path><path d="M529 365L578 381L564 319Z" fill="#e2e4e5" stroke="#e2e4e5"></path><path d="M511 287L384 317L529 365Z" fill="#e2e4e5" stroke="#e2e4e5"></path><path d="M368 438L512 471L529 365Z" fill="#777d84" stroke="#777d84"></path><path d="M529 365L512 471L578 381Z" fill="#2f3943" stroke="#2f3943"></path><path d="M574 160L462 188L511 287Z" fill="#5e656d" stroke="#5e656d"></path><path d="M511 287L462 188L384 317Z" fill="#abafb3" stroke="#abafb3"></path><path d="M704 233L574 160L564 319Z" fill="#ffffff" stroke="#ffffff"></path><path d="M564 319L574 160L511 287Z" fill="#abafb3" stroke="#abafb3"></path><path d="M634 473L689 379L578 381Z" fill="#5e656d" stroke="#5e656d"></path><path d="M578 381L689 379L564 319Z" fill="#777d84" stroke="#777d84"></path><path d="M512 471L634 473L578 381Z" fill="#00101c" stroke="#00101c"></path><path d="M409 160L334 308L384 317Z" fill="#19242f" stroke="#19242f"></path><path d="M384 317L368 438L529 365Z" fill="#c6c9cc" stroke="#c6c9cc"></path><path d="M334 308L368 438L384 317Z" fill="#e2e4e5" stroke="#e2e4e5"></path><path d="M417 134L409 160L462 188Z" fill="#19242f" stroke="#19242f"></path><path d="M462 188L409 160L384 317Z" fill="#464e58" stroke="#464e58"></path><path d="M368 438L407 489L512 471Z" fill="#2f3943" stroke="#2f3943"></path><path d="M512 471L614 600L634 473Z" fill="#91969b" stroke="#91969b"></path><path d="M689 379L704 233L564 319Z" fill="#e2e4e5" stroke="#e2e4e5"></path><path d="M634 473L680 470L689 379Z" fill="#5e656d" stroke="#5e656d"></path><path d="M689 379L739 284L704 233Z" fill="#464e58" stroke="#464e58"></path><path d="M614 600L680 470L634 473Z" fill="#19242f" stroke="#19242f"></path><path d="M765 406L739 284L689 379Z" fill="#c6c9cc" stroke="#c6c9cc"></path><path d="M460 80L417 134L462 188Z" fill="#464e58" stroke="#464e58"></path><path d="M213 382L265 380L195 319Z" fill="#00101c" stroke="#00101c"></path><path d="M830 202L667 126L704 233Z" fill="#2f3943" stroke="#2f3943"></path><path d="M704 233L667 126L574 160Z" fill="#91969b" stroke="#91969b"></path><path d="M574 160L460 80L462 188Z" fill="#5e656d" stroke="#5e656d"></path><path d="M598 70L460 80L574 160Z" fill="#c6c9cc" stroke="#c6c9cc"></path><path d="M680 470L765 406L689 379Z" fill="#abafb3" stroke="#abafb3"></path><path d="M334 308L265 380L368 438Z" fill="#2f3943" stroke="#2f3943"></path><path d="M368 438L280 514L407 489Z" fill="#ffffff" stroke="#ffffff"></path><path d="M288 173L334 308L409 160Z" fill="#19242f" stroke="#19242f"></path><path d="M667 126L598 70L574 160Z" fill="#ffffff" stroke="#ffffff"></path><path d="M369 600L480 600L407 489Z" fill="#e2e4e5" stroke="#e2e4e5"></path><path d="M407 489L480 600L512 471Z" fill="#91969b" stroke="#91969b"></path><path d="M269 121L288 173L417 134Z" fill="#777d84" stroke="#777d84"></path><path d="M417 134L288 173L409 160Z" fill="#2f3943" stroke="#2f3943"></path><path d="M765 406L812 325L739 284Z" fill="#2f3943" stroke="#2f3943"></path><path d="M739 284L830 202L704 233Z" fill="#00101c" stroke="#00101c"></path><path d="M480 600L614 600L512 471Z" fill="#2f3943" stroke="#2f3943"></path><path d="M680 470L783 534L765 406Z" fill="#ffffff" stroke="#ffffff"></path><path d="M265 380L280 514L368 438Z" fill="#91969b" stroke="#91969b"></path><path d="M280 514L369 600L407 489Z" fill="#464e58" stroke="#464e58"></path><path d="M265 380L199 509L280 514Z" fill="#91969b" stroke="#91969b"></path><path d="M195 319L265 380L334 308Z" fill="#ffffff" stroke="#ffffff"></path><path d="M375 0L269 121L417 134Z" fill="#91969b" stroke="#91969b"></path><path d="M214 214L195 319L334 308Z" fill="#ffffff" stroke="#ffffff"></path><path d="M598 70L480 0L460 80Z" fill="#5e656d" stroke="#5e656d"></path><path d="M460 80L375 0L417 134Z" fill="#00101c" stroke="#00101c"></path><path d="M214 214L334 308L288 173Z" fill="#2f3943" stroke="#2f3943"></path><path d="M269 121L214 214L288 173Z" fill="#464e58" stroke="#464e58"></path><path d="M812 325L830 202L739 284Z" fill="#abafb3" stroke="#abafb3"></path><path d="M672 0L593 0L598 70Z" fill="#777d84" stroke="#777d84"></path><path d="M598 70L593 0L480 0Z" fill="#abafb3" stroke="#abafb3"></path><path d="M672 0L598 70L667 126Z" fill="#5e656d" stroke="#5e656d"></path><path d="M727 600L783 534L680 470Z" fill="#464e58" stroke="#464e58"></path><path d="M900 370L900 303L812 325Z" fill="#e2e4e5" stroke="#e2e4e5"></path><path d="M812 325L900 303L830 202Z" fill="#91969b" stroke="#91969b"></path><path d="M614 600L727 600L680 470Z" fill="#19242f" stroke="#19242f"></path><path d="M280 514L316 600L369 600Z" fill="#777d84" stroke="#777d84"></path><path d="M230 600L316 600L280 514Z" fill="#c6c9cc" stroke="#c6c9cc"></path><path d="M782 0L672 0L667 126Z" fill="#91969b" stroke="#91969b"></path><path d="M480 0L375 0L460 80Z" fill="#abafb3" stroke="#abafb3"></path><path d="M727 600L767 600L783 534Z" fill="#00101c" stroke="#00101c"></path><path d="M133 361L199 509L213 382Z" fill="#464e58" stroke="#464e58"></path><path d="M213 382L199 509L265 380Z" fill="#2f3943" stroke="#2f3943"></path><path d="M900 370L765 406L900 526Z" fill="#2f3943" stroke="#2f3943"></path><path d="M900 370L812 325L765 406Z" fill="#e2e4e5" stroke="#e2e4e5"></path><path d="M900 117L825 97L830 202Z" fill="#91969b" stroke="#91969b"></path><path d="M830 202L825 97L667 126Z" fill="#5e656d" stroke="#5e656d"></path><path d="M900 526L765 406L783 534Z" fill="#464e58" stroke="#464e58"></path><path d="M900 303L900 221L830 202Z" fill="#00101c" stroke="#00101c"></path><path d="M195 319L133 361L213 382Z" fill="#777d84" stroke="#777d84"></path><path d="M65 320L133 361L195 319Z" fill="#19242f" stroke="#19242f"></path><path d="M199 509L230 600L280 514Z" fill="#91969b" stroke="#91969b"></path><path d="M119 600L230 600L199 509Z" fill="#c6c9cc" stroke="#c6c9cc"></path><path d="M375 0L284 0L269 121Z" fill="#abafb3" stroke="#abafb3"></path><path d="M269 121L187 100L214 214Z" fill="#2f3943" stroke="#2f3943"></path><path d="M214 214L91 192L195 319Z" fill="#5e656d" stroke="#5e656d"></path><path d="M209 0L187 100L269 121Z" fill="#e2e4e5" stroke="#e2e4e5"></path><path d="M900 0L782 0L825 97Z" fill="#e2e4e5" stroke="#e2e4e5"></path><path d="M825 97L782 0L667 126Z" fill="#2f3943" stroke="#2f3943"></path><path d="M900 600L900 526L783 534Z" fill="#777d84" stroke="#777d84"></path><path d="M900 221L900 117L830 202Z" fill="#e2e4e5" stroke="#e2e4e5"></path><path d="M284 0L209 0L269 121Z" fill="#abafb3" stroke="#abafb3"></path><path d="M69 112L91 192L187 100Z" fill="#91969b" stroke="#91969b"></path><path d="M187 100L91 192L214 214Z" fill="#c6c9cc" stroke="#c6c9cc"></path><path d="M91 192L65 320L195 319Z" fill="#2f3943" stroke="#2f3943"></path><path d="M74 520L119 600L199 509Z" fill="#c6c9cc" stroke="#c6c9cc"></path><path d="M767 600L900 600L783 534Z" fill="#e2e4e5" stroke="#e2e4e5"></path><path d="M74 520L199 509L133 361Z" fill="#2f3943" stroke="#2f3943"></path><path d="M0 490L74 520L133 361Z" fill="#464e58" stroke="#464e58"></path><path d="M900 117L900 0L825 97Z" fill="#ffffff" stroke="#ffffff"></path><path d="M0 236L0 308L65 320Z" fill="#777d84" stroke="#777d84"></path><path d="M63 0L69 112L187 100Z" fill="#e2e4e5" stroke="#e2e4e5"></path><path d="M0 236L65 320L91 192Z" fill="#464e58" stroke="#464e58"></path><path d="M65 320L0 360L133 361Z" fill="#464e58" stroke="#464e58"></path><path d="M0 308L0 360L65 320Z" fill="#2f3943" stroke="#2f3943"></path><path d="M69 112L0 236L91 192Z" fill="#c6c9cc" stroke="#c6c9cc"></path><path d="M0 360L0 490L133 361Z" fill="#c6c9cc" stroke="#c6c9cc"></path><path d="M74 520L0 600L119 600Z" fill="#5e656d" stroke="#5e656d"></path><path d="M209 0L63 0L187 100Z" fill="#00101c" stroke="#00101c"></path><path d="M69 112L0 97L0 236Z" fill="#464e58" stroke="#464e58"></path><path d="M63 0L0 97L69 112Z" fill="#91969b" stroke="#91969b"></path><path d="M0 490L0 600L74 520Z" fill="#c6c9cc" stroke="#c6c9cc"></path><path d="M63 0L0 0L0 97Z" fill="#c6c9cc" stroke="#c6c9cc"></path></g></svg>