<?xml version="1.0" standalone="no"?>
<svg xmlns:xlink="http://www.w3.org/1999/xlink" id="wave" style="transform:rotate(0deg); transition: 0.3s" viewBox="0 0 1440 360" version="1.1" xmlns="http://www.w3.org/2000/svg"><defs><linearGradient id="sw-gradient-0" x1="0" x2="0" y1="1" y2="0"><stop stop-color="rgba(215.384, 209.447, 207.54, 1)" offset="0%"/><stop stop-color="rgba(156.188, 155.515, 154.027, 1)" offset="100%"/></linearGradient></defs><path style="transform:translate(0, 0px); opacity:1" fill="url(#sw-gradient-0)" d="M0,144L60,120C120,96,240,48,360,72C480,96,600,192,720,192C840,192,960,96,1080,84C1200,72,1320,144,1440,174C1560,204,1680,192,1800,180C1920,168,2040,156,2160,162C2280,168,2400,192,2520,210C2640,228,2760,240,2880,204C3000,168,3120,84,3240,54C3360,24,3480,48,3600,72C3720,96,3840,120,3960,120C4080,120,4200,96,4320,126C4440,156,4560,240,4680,246C4800,252,4920,180,5040,156C5160,132,5280,156,5400,168C5520,180,5640,180,5760,156C5880,132,6000,84,6120,66C6240,48,6360,60,6480,96C6600,132,6720,192,6840,210C6960,228,7080,204,7200,162C7320,120,7440,60,7560,42C7680,24,7800,48,7920,48C8040,48,8160,24,8280,12C8400,0,8520,0,8580,0L8640,0L8640,360L8580,360C8520,360,8400,360,8280,360C8160,360,8040,360,7920,360C7800,360,7680,360,7560,360C7440,360,7320,360,7200,360C7080,360,6960,360,6840,360C6720,360,6600,360,6480,360C6360,360,6240,360,6120,360C6000,360,5880,360,5760,360C5640,360,5520,360,5400,360C5280,360,5160,360,5040,360C4920,360,4800,360,4680,360C4560,360,4440,360,4320,360C4200,360,4080,360,3960,360C3840,360,3720,360,3600,360C3480,360,3360,360,3240,360C3120,360,3000,360,2880,360C2760,360,2640,360,2520,360C2400,360,2280,360,2160,360C2040,360,1920,360,1800,360C1680,360,1560,360,1440,360C1320,360,1200,360,1080,360C960,360,840,360,720,360C600,360,480,360,360,360C240,360,120,360,60,360L0,360Z"/><defs><linearGradient id="sw-gradient-1" x1="0" x2="0" y1="1" y2="0"><stop stop-color="rgba(0, 0, 0, 1)" offset="0%"/><stop stop-color="rgba(185.786, 185.786, 185.786, 1)" offset="100%"/></linearGradient></defs><path style="transform:translate(0, 50px); opacity:0.9" fill="url(#sw-gradient-1)" d="M0,144L60,156C120,168,240,192,360,192C480,192,600,168,720,138C840,108,960,72,1080,78C1200,84,1320,132,1440,126C1560,120,1680,60,1800,54C1920,48,2040,96,2160,96C2280,96,2400,48,2520,48C2640,48,2760,96,2880,138C3000,180,3120,216,3240,222C3360,228,3480,204,3600,186C3720,168,3840,156,3960,168C4080,180,4200,216,4320,228C4440,240,4560,228,4680,198C4800,168,4920,120,5040,84C5160,48,5280,24,5400,42C5520,60,5640,120,5760,138C5880,156,6000,132,6120,156C6240,180,6360,252,6480,258C6600,264,6720,204,6840,156C6960,108,7080,72,7200,48C7320,24,7440,12,7560,6C7680,0,7800,0,7920,54C8040,108,8160,216,8280,246C8400,276,8520,228,8580,204L8640,180L8640,360L8580,360C8520,360,8400,360,8280,360C8160,360,8040,360,7920,360C7800,360,7680,360,7560,360C7440,360,7320,360,7200,360C7080,360,6960,360,6840,360C6720,360,6600,360,6480,360C6360,360,6240,360,6120,360C6000,360,5880,360,5760,360C5640,360,5520,360,5400,360C5280,360,5160,360,5040,360C4920,360,4800,360,4680,360C4560,360,4440,360,4320,360C4200,360,4080,360,3960,360C3840,360,3720,360,3600,360C3480,360,3360,360,3240,360C3120,360,3000,360,2880,360C2760,360,2640,360,2520,360C2400,360,2280,360,2160,360C2040,360,1920,360,1800,360C1680,360,1560,360,1440,360C1320,360,1200,360,1080,360C960,360,840,360,720,360C600,360,480,360,360,360C240,360,120,360,60,360L0,360Z"/><defs><linearGradient id="sw-gradient-2" x1="0" x2="0" y1="1" y2="0"><stop stop-color="rgba(0, 0, 0, 1)" offset="0%"/><stop stop-color="rgba(17.304, 17.304, 17.304, 1)" offset="100%"/></linearGradient></defs><path style="transform:translate(0, 100px); opacity:0.8" fill="url(#sw-gradient-2)" d="M0,108L60,138C120,168,240,228,360,228C480,228,600,168,720,156C840,144,960,180,1080,174C1200,168,1320,120,1440,132C1560,144,1680,216,1800,252C1920,288,2040,288,2160,246C2280,204,2400,120,2520,72C2640,24,2760,12,2880,48C3000,84,3120,168,3240,222C3360,276,3480,300,3600,306C3720,312,3840,300,3960,300C4080,300,4200,312,4320,282C4440,252,4560,180,4680,126C4800,72,4920,36,5040,30C5160,24,5280,48,5400,54C5520,60,5640,48,5760,48C5880,48,6000,60,6120,78C6240,96,6360,120,6480,156C6600,192,6720,240,6840,252C6960,264,7080,240,7200,192C7320,144,7440,72,7560,60C7680,48,7800,96,7920,144C8040,192,8160,240,8280,246C8400,252,8520,216,8580,198L8640,180L8640,360L8580,360C8520,360,8400,360,8280,360C8160,360,8040,360,7920,360C7800,360,7680,360,7560,360C7440,360,7320,360,7200,360C7080,360,6960,360,6840,360C6720,360,6600,360,6480,360C6360,360,6240,360,6120,360C6000,360,5880,360,5760,360C5640,360,5520,360,5400,360C5280,360,5160,360,5040,360C4920,360,4800,360,4680,360C4560,360,4440,360,4320,360C4200,360,4080,360,3960,360C3840,360,3720,360,3600,360C3480,360,3360,360,3240,360C3120,360,3000,360,2880,360C2760,360,2640,360,2520,360C2400,360,2280,360,2160,360C2040,360,1920,360,1800,360C1680,360,1560,360,1440,360C1320,360,1200,360,1080,360C960,360,840,360,720,360C600,360,480,360,360,360C240,360,120,360,60,360L0,360Z"/><defs><linearGradient id="sw-gradient-3" x1="0" x2="0" y1="1" y2="0"><stop stop-color="rgba(0, 0, 0, 1)" offset="0%"/><stop stop-color="rgba(0, 0, 0, 1)" offset="100%"/></linearGradient></defs><path style="transform:translate(0, 150px); opacity:0.7" fill="url(#sw-gradient-3)" d="M0,324L60,306C120,288,240,252,360,252C480,252,600,288,720,276C840,264,960,204,1080,156C1200,108,1320,72,1440,48C1560,24,1680,12,1800,24C1920,36,2040,72,2160,78C2280,84,2400,60,2520,42C2640,24,2760,12,2880,36C3000,60,3120,120,3240,126C3360,132,3480,84,3600,78C3720,72,3840,108,3960,120C4080,132,4200,120,4320,108C4440,96,4560,84,4680,66C4800,48,4920,24,5040,30C5160,36,5280,72,5400,84C5520,96,5640,84,5760,72C5880,60,6000,48,6120,60C6240,72,6360,108,6480,126C6600,144,6720,144,6840,150C6960,156,7080,168,7200,156C7320,144,7440,108,7560,96C7680,84,7800,96,7920,108C8040,120,8160,132,8280,156C8400,180,8520,216,8580,234L8640,252L8640,360L8580,360C8520,360,8400,360,8280,360C8160,360,8040,360,7920,360C7800,360,7680,360,7560,360C7440,360,7320,360,7200,360C7080,360,6960,360,6840,360C6720,360,6600,360,6480,360C6360,360,6240,360,6120,360C6000,360,5880,360,5760,360C5640,360,5520,360,5400,360C5280,360,5160,360,5040,360C4920,360,4800,360,4680,360C4560,360,4440,360,4320,360C4200,360,4080,360,3960,360C3840,360,3720,360,3600,360C3480,360,3360,360,3240,360C3120,360,3000,360,2880,360C2760,360,2640,360,2520,360C2400,360,2280,360,2160,360C2040,360,1920,360,1800,360C1680,360,1560,360,1440,360C1320,360,1200,360,1080,360C960,360,840,360,720,360C600,360,480,360,360,360C240,360,120,360,60,360L0,360Z"/></svg>